<?xml version="1.0" encoding="UTF-8" standalone="no"?>
<svg
   xmlns:dc="http://purl.org/dc/elements/1.1/"
   xmlns:cc="http://creativecommons.org/ns#"
   xmlns:rdf="http://www.w3.org/1999/02/22-rdf-syntax-ns#"
   xmlns:svg="http://www.w3.org/2000/svg"
   xmlns="http://www.w3.org/2000/svg"
   xmlns:sodipodi="http://sodipodi.sourceforge.net/DTD/sodipodi-0.dtd"
   xmlns:inkscape="http://www.inkscape.org/namespaces/inkscape"
   version="1.0"
   width="512.000000pt"
   height="512.000000pt"
   viewBox="0 0 512.000000 512.000000"
   preserveAspectRatio="xMidYMid meet"
   id="svg40"
   sodipodi:docname="form.svg"
   inkscape:version="0.92.5 (2060ec1f9f, 2020-04-08)">
  <metadata
     id="metadata46">
    <rdf:RDF>
      <cc:Work
         rdf:about="">
        <dc:format>image/svg+xml</dc:format>
        <dc:type
           rdf:resource="http://purl.org/dc/dcmitype/StillImage" />
      </cc:Work>
    </rdf:RDF>
  </metadata>
  <defs
     id="defs44" />
  <sodipodi:namedview
     pagecolor="#ffffff"
     bordercolor="#666666"
     borderopacity="1"
     objecttolerance="10"
     gridtolerance="10"
     guidetolerance="10"
     inkscape:pageopacity="0"
     inkscape:pageshadow="2"
     inkscape:window-width="760"
     inkscape:window-height="480"
     id="namedview42"
     showgrid="false"
     inkscape:zoom="0.34570313"
     inkscape:cx="335.92127"
     inkscape:cy="341.33333"
     inkscape:window-x="0"
     inkscape:window-y="0"
     inkscape:window-maximized="0"
     inkscape:current-layer="g38" />
  <g
     transform="translate(0.000000,512.000000) scale(0.100000,-0.100000)"
     fill="#000000"
     stroke="none"
     id="g38">
    <path
       d="M1089 5091 l-29 -29 0 -2001 0 -2001 705 0 705 0 0 233 c0 280 7 313 78 386 26 27 53 50 61 53 10 3 -2 50 -52 203 -36 110 -68 223 -72 250 -3 28 -8 65 -11 83 l-5 32 -237 0 -237 1 -250 127 c-230 117 -253 131 -285 175 l-35 47 -92 0 -93 0 0 85 0 85 95 0 c94 0 95 0 109 29 28 53 87 92 327 211 l239 120 460 0 460 0 34 73 c19 40 46 83 59 95 l25 24 -21 46 c-16 35 -21 68 -22 127 0 71 4 88 33 147 36 73 87 124 161 160 38 19 63 23 141 23 142 0 155 -8 406 -259 219 -219 252 -262 291 -376 l22 -65 0 943 1 944 -29 29 -29 29 -1442 0 -1442 0 -29 -29z m2791 -236 l0 -85 -530 0 -530 0 0 85 0 85 530 0 530 0 0 -85z m-1320 -525 l0 -530 -620 0 -620 0 0 523 c0 288 3 527 7 530 3 4 282 7 620 7 l613 0 0 -530z m1320 170 l0 -90 -527 2 -528 3 -3 88 -3 87 531 0 530 0 0 -90z m0 -350 l0 -90 -527 2 -528 3 -3 74 c-2 41 -1 80 2 88 4 11 100 13 531 13 l525 0 0 -90z m-1060 -710 l0 -90 -790 0 -790 0 0 90 0 90 790 0 790 0 0 -90z m-1230 -350 l0 -90 -175 0 -175 0 0 90 0 90 175 0 175 0 0 -90z m0 -705 l0 -85 -175 0 -175 0 0 85 0 85 175 0 175 0 0 -85z m790 -355 l0 -90 -570 0 -570 0 0 90 0 90 570 0 570 0 0 -90z m-702 -527 l-3 -178 -175 0 -175 0 -3 165 c-1 90 0 170 2 177 4 10 47 13 181 13 l175 0 -2 -177z m702 -3 l0 -180 -175 0 -175 0 0 180 0 180 175 0 175 0 0 -180z"
       id="path2"
       style="fill:#ffffff;stroke:#000000;stroke-opacity:1" />
    <path
       d="M533 4047 c-65 -24 -119 -73 -149 -133 l-29 -59 -3 -1572 -2 -1573 2210 0 2210 0 -2 793 -3 792 -87 3 -88 3 0 -638 c0 -605 -1 -640 -19 -680 -12 -26 -35 -52 -62 -70 l-43 -28 -1884 -3 c-1250 -1 -1897 1 -1922 8 -51 14 -89 46 -111 94 -18 39 -19 99 -19 1400 l0 1360 21 43 c14 29 35 52 63 68 39 23 54 25 154 25 l112 0 0 90 0 90 -157 -1 c-94 0 -171 -5 -190 -12z"
       id="path4"
       style="fill:#ffffff;stroke:#000000;stroke-opacity:1" />
    <path
       d="M4240 3970 l0 -90 175 0 175 0 0 -350 0 -350 90 0 91 0 -3 416 -3 416 -28 24 c-28 24 -29 24 -263 24 l-234 0 0 -90z"
       id="path6"
       style="fill:#ffffff;stroke:#000000;stroke-opacity:1" />
    <path
       d="M710 2385 l0 -1325 85 0 85 0 0 1325 0 1325 -85 0 -85 0 0 -1325z"
       id="path8"
       style="fill:#ffffff;stroke:#000000;stroke-opacity:1" />
    <path
       d="M3270 3688 c-59 -31 -82 -66 -87 -130 -6 -75 21 -118 74 -118 115 -2 229 -95 263 -215 l13 -45 168 0 c93 0 169 2 169 5 0 3 -10 27 -22 53 -15 33 -78 104 -212 241 -236 239 -269 258 -366 209z"
       id="path10"
       style="fill:#ffffff;stroke:#000000;stroke-opacity:1" />
    <path
       d="M4240 3445 l0 -265 85 0 85 0 0 265 0 265 -85 0 -85 0 0 -265z"
       id="path12"
       style="fill:#ffffff;stroke:#000000;stroke-opacity:1" />
    <path
       d="M3200 3259 c-31 -13 -70 -49 -70 -65 0 -7 -22 -56 -50 -111 -39 -76 -82 -137 -195 -273 -155 -186 -193 -249 -221 -366 -30 -127 -18 -216 63 -459 l69 -210 385 -3 384 -2 128 255 c70 140 127 260 127 265 0 6 -145 10 -410 10 l-410 0 0 75 c0 165 40 254 177 397 119 124 164 210 171 324 5 82 -7 124 -42 147 -31 21 -77 27 -106 16z"
       id="path14"
       style="fill:#ffffff;stroke:#000000;stroke-opacity:1" />
    <path
       d="M2120 2910 l0 -90 269 0 269 0 58 68 c32 37 67 77 78 90 l19 22 -346 0 -347 0 0 -90z"
       id="path16"
       style="fill:#ffffff;stroke:#000000;stroke-opacity:1" />
    <path
       d="M3489 2927 c-14 -39 -29 -80 -33 -89 -8 -17 23 -18 563 -18 l571 0 0 90 0 90 -537 0 -538 0 -26 -73z"
       id="path18"
       style="fill:#ffffff;stroke:#000000;stroke-opacity:1" />
    <path
       d="M4770 2734 l0 -265 151 3 151 3 24 28 c24 28 24 31 24 233 l0 206 -29 29 -29 29 -146 0 -146 0 0 -266z"
       id="path20"
       style="fill:#ffffff;stroke:#000000;stroke-opacity:1" />
    <path
       d="M1775 2863 c-167 -83 -185 -96 -185 -128 0 -12 8 -29 18 -37 16 -15 315 -168 327 -168 3 0 5 92 5 205 0 113 -3 205 -7 204 -5 0 -75 -34 -158 -76z"
       id="path22"
       style="fill:#ffffff;stroke:#000000;stroke-opacity:1" />
    <path
       d="M2120 2560 l0 -90 184 0 184 0 7 33 c4 17 18 58 30 90 l24 57 -215 0 -214 0 0 -90z"
       id="path24"
       style="fill:#ffffff;stroke:#000000;stroke-opacity:1" />
    <path
       d="M3262 2606 c-43 -47 -72 -95 -72 -121 0 -13 74 -15 700 -15 l700 0 0 90 0 90 -644 0 -643 0 -41 -44z"
       id="path26"
       style="fill:#ffffff;stroke:#000000;stroke-opacity:1" />
    <path
       d="M3890 2019 l-141 -281 45 -42 c81 -75 86 -94 86 -383 l0 -253 90 0 90 0 0 620 c0 544 -2 620 -15 620 -10 0 -65 -101 -155 -281z"
       id="path28"
       style="fill:#ffffff;stroke:#000000;stroke-opacity:1" />
    <path
       d="M4240 1680 l0 -620 85 0 85 0 0 620 0 620 -85 0 -85 0 0 -620z"
       id="path30"
       style="fill:#ffffff;stroke:#000000;stroke-opacity:1" />
    <path
       d="M2680 1561 l-30 -29 0 -236 0 -236 531 0 530 0 -3 240 c-3 234 -4 240 -26 262 l-23 23 -475 3 -475 3 -29 -30z"
       id="path32"
       style="fill:#ffffff;stroke:#000000;stroke-opacity:1" />
    <path
       d="M28 499 c-29 -29 -31 -33 -25 -93 16 -168 125 -313 285 -378 l57 -23 2210 0 c2118 0 2212 1 2263 18 165 58 283 209 299 383 6 60 4 64 -25 93 l-30 31 -856 0 -856 0 0 -78 c0 -64 -5 -87 -26 -130 -28 -56 -85 -107 -142 -128 -47 -17 -1175 -20 -1234 -4 -57 16 -119 69 -150 129 -24 45 -28 65 -28 132 l0 79 -856 0 -856 0 -30 -31z m4007 -175 c75 -81 -37 -193 -120 -121 -38 32 -38 92 0 124 37 32 89 31 120 -3z m350 1 c54 -53 16 -145 -60 -145 -49 0 -85 36 -85 85 0 49 36 85 85 85 25 0 44 -8 60 -25z m351 1 c59 -50 22 -146 -56 -146 -82 0 -118 94 -58 150 30 27 80 26 114 -4z"
       id="path34"
       style="fill:#ffffff;stroke:#000000;stroke-opacity:1" />
    <path
       d="M1940 480 c0 -61 19 -102 55 -118 37 -17 1093 -17 1130 0 36 16 55 57 55 118 l0 50 -620 0 -620 0 0 -50z"
       id="path36"
       style="fill:#ffffff;stroke:#000000;stroke-opacity:1" />
  </g>
</svg>
