<?xml version="1.0" encoding="UTF-8" standalone="no"?>
<svg
   xmlns:dc="http://purl.org/dc/elements/1.1/"
   xmlns:cc="http://creativecommons.org/ns#"
   xmlns:rdf="http://www.w3.org/1999/02/22-rdf-syntax-ns#"
   xmlns:svg="http://www.w3.org/2000/svg"
   xmlns="http://www.w3.org/2000/svg"
   xmlns:sodipodi="http://sodipodi.sourceforge.net/DTD/sodipodi-0.dtd"
   xmlns:inkscape="http://www.inkscape.org/namespaces/inkscape"
   version="1.0"
   width="256.000000pt"
   height="256.000000pt"
   viewBox="0 0 256.000000 256.000000"
   preserveAspectRatio="xMidYMid meet"
   id="svg18"
   sodipodi:docname="people.svg"
   inkscape:version="0.92.5 (2060ec1f9f, 2020-04-08)">
  <metadata
     id="metadata24">
    <rdf:RDF>
      <cc:Work
         rdf:about="">
        <dc:format>image/svg+xml</dc:format>
        <dc:type
           rdf:resource="http://purl.org/dc/dcmitype/StillImage" />
      </cc:Work>
    </rdf:RDF>
  </metadata>
  <defs
     id="defs22" />
  <sodipodi:namedview
     pagecolor="#ffffff"
     bordercolor="#666666"
     borderopacity="1"
     objecttolerance="10"
     gridtolerance="10"
     guidetolerance="10"
     inkscape:pageopacity="0"
     inkscape:pageshadow="2"
     inkscape:window-width="760"
     inkscape:window-height="480"
     id="namedview20"
     showgrid="false"
     inkscape:zoom="0.69140625"
     inkscape:cx="170.66667"
     inkscape:cy="170.66667"
     inkscape:window-x="0"
     inkscape:window-y="0"
     inkscape:window-maximized="0"
     inkscape:current-layer="g16" />
  <g
     transform="translate(0.000000,256.000000) scale(0.100000,-0.100000)"
     fill="#000000"
     stroke="none"
     id="g16">
    <path
       d="M545 2350 c-187 -28 -261 -266 -124 -397 130 -124 351 -56 388 119 35 160 -100 302 -264 278z"
       id="path2"
       style="fill:#ffffff" />
    <path
       d="M1931 2348 c-212 -37 -253 -335 -60 -432 158 -78 338 29 339 202 0 149 -129 256 -279 230z"
       id="path4"
       style="fill:#ffffff" />
    <path
       d="M326 1770 c-45 -49 -60 -74 -77 -131 -31 -102 -36 -99 195 -99 l192 0 64 65 c36 36 86 80 113 96 26 17 47 36 47 42 0 5 -18 27 -40 48 l-40 38 -53 -24 c-81 -37 -159 -42 -245 -16 -39 12 -74 26 -77 31 -11 18 -22 11 -79 -50z"
       id="path6"
       style="fill:#ffffff" />
    <path
       d="M1740 1791 c-22 -21 -40 -43 -40 -49 0 -6 14 -19 31 -28 17 -8 68 -51 114 -95 l82 -79 190 0 c225 0 223 -1 198 86 -20 68 -49 116 -103 167 -38 37 -41 38 -63 24 -82 -52 -217 -58 -316 -12 l-53 24 -40 -38z"
       id="path8"
       style="fill:#ffffff" />
    <path
       d="M1145 1724 c-275 -69 -466 -245 -546 -504 -35 -110 -33 -292 3 -402 39 -116 92 -204 177 -289 137 -136 278 -199 468 -207 144 -6 234 14 359 78 l92 47 109 -110 c115 -116 153 -141 202 -131 47 10 91 65 91 116 0 39 -6 47 -122 165 l-122 123 17 28 c34 52 76 147 94 212 27 99 24 273 -6 370 -34 112 -86 203 -162 284 -83 89 -168 146 -280 188 -77 29 -96 31 -219 34 -74 2 -144 1 -155 -2z m260 -119 c211 -44 395 -220 449 -431 20 -79 20 -219 0 -298 -36 -138 -124 -261 -247 -344 -108 -72 -196 -97 -332 -96 -118 1 -157 10 -275 67 -87 42 -193 148 -242 242 -48 93 -68 174 -68 280 0 166 57 302 175 420 144 144 339 202 540 160z"
       id="path10"
       style="fill:#ffffff" />
    <path
       d="M1231 1499 c-179 -34 -244 -269 -110 -396 45 -42 97 -63 159 -63 178 0 289 192 200 347 -31 55 -84 98 -132 107 -60 12 -75 13 -117 5z"
       id="path12"
       style="fill:#ffffff" />
    <path
       d="M1037 937 c-51 -50 -80 -101 -98 -171 -20 -79 -34 -76 347 -76 324 0 333 1 339 20 16 51 -53 193 -119 244 l-34 25 -37 -19 c-104 -53 -230 -47 -346 17 -4 2 -27 -16 -52 -40z"
       id="path14"
       style="fill:#ffffff" />
  </g>
</svg>
