<?xml version="1.0" encoding="UTF-8" standalone="no"?>
<svg
   xmlns:dc="http://purl.org/dc/elements/1.1/"
   xmlns:cc="http://creativecommons.org/ns#"
   xmlns:rdf="http://www.w3.org/1999/02/22-rdf-syntax-ns#"
   xmlns:svg="http://www.w3.org/2000/svg"
   xmlns="http://www.w3.org/2000/svg"
   xmlns:sodipodi="http://sodipodi.sourceforge.net/DTD/sodipodi-0.dtd"
   xmlns:inkscape="http://www.inkscape.org/namespaces/inkscape"
   version="1.0"
   width="1280.000000pt"
   height="1278.000000pt"
   viewBox="0 0 1280.000000 1278.000000"
   preserveAspectRatio="xMidYMid meet"
   id="svg16"
   sodipodi:docname="thought_bubble.svg"
   inkscape:version="0.92.5 (2060ec1f9f, 2020-04-08)">
  <defs
     id="defs20" />
  <sodipodi:namedview
     pagecolor="#ffffff"
     bordercolor="#666666"
     borderopacity="1"
     objecttolerance="10"
     gridtolerance="10"
     guidetolerance="10"
     inkscape:pageopacity="0"
     inkscape:pageshadow="2"
     inkscape:window-width="1920"
     inkscape:window-height="1057"
     id="namedview18"
     showgrid="false"
     inkscape:zoom="0.13849765"
     inkscape:cx="853.33333"
     inkscape:cy="852"
     inkscape:window-x="-8"
     inkscape:window-y="-8"
     inkscape:window-maximized="1"
     inkscape:current-layer="g14" />
  <metadata
     id="metadata2">
Created by potrace 1.15, written by Peter Selinger 2001-2017
<rdf:RDF>
  <cc:Work
     rdf:about="">
    <dc:format>image/svg+xml</dc:format>
    <dc:type
       rdf:resource="http://purl.org/dc/dcmitype/StillImage" />
    <dc:title></dc:title>
  </cc:Work>
</rdf:RDF>
</metadata>
  <g
     transform="translate(0.000000,1278.000000) scale(0.100000,-0.100000)"
     fill="#000000"
     stroke="none"
     id="g14">
    <path
       d="M8154 12769 c-522 -50 -995 -264 -1325 -599 l-75 -77 -89 39 c-291 128 -556 186 -890 195 -224 6 -384 -9 -585 -53 -855 -191 -1464 -829 -1471 -1540 l-1 -101 -97 -23 c-392 -94 -718 -265 -975 -510 -316 -301 -476 -656 -476 -1053 0 -162 17 -276 62 -417 104 -326 346 -633 673 -851 181 -121 461 -242 690 -298 l90 -22 0 -152 c1 -102 7 -181 18 -240 141 -710 802 -1249 1677 -1368 122 -17 479 -17 595 -1 355 50 676 162 925 323 33 21 64 39 69 39 4 0 34 -21 67 -46 407 -318 955 -479 1505 -444 330 21 597 90 874 225 339 165 612 411 788 710 26 44 30 47 60 41 391 -82 695 -85 1045 -11 751 158 1333 678 1463 1308 95 461 -62 951 -414 1296 l-66 64 19 27 c42 59 132 261 161 360 41 142 51 221 51 380 -1 661 -498 1255 -1257 1503 -243 80 -454 111 -741 112 l-221 0 -23 60 c-95 252 -302 515 -555 707 -413 312 -1014 471 -1571 417z"
       id="path4"
       style="fill:#ffffff;stroke:none;stroke-opacity:1;opacity:1;fill-opacity:1;fill-rule:nonzero;stroke-width:375.00000447;stroke-miterlimit:4;stroke-dasharray:none" />
    <path
       d="m 4297.1525,5557.4576 c -84,-19 -202,-69 -266,-112 -125,-85 -233,-221 -278,-353 -30,-90 -38,-251 -15,-340 52,-201 182,-357 381,-456 313,-155 700,-88 935,162 346,368 164,931 -350,1086 -86,27 -317,34 -407,13 z"
       id="path6"
       style="fill:#ffffff;fill-opacity:1;stroke:none;stroke-width:375.00000447;stroke-miterlimit:4;stroke-dasharray:none;stroke-opacity:1"
       inkscape:connector-curvature="0" />
    <path
       d="m 3001.678,4313.8305 c -187,-45 -351,-209 -401,-400 -20,-76 -19,-216 1,-285 71,-243 287,-408 534,-409 255,0 481,188 535,445 8,39 15,88 15,110 0,69 -28,177 -66,254 -110,223 -373,344 -618,285 z"
       id="path8"
       style="fill:#ffffff;fill-opacity:1;stroke:none;stroke-width:375.00000447;stroke-miterlimit:4;stroke-dasharray:none;stroke-opacity:1"
       inkscape:connector-curvature="0" />
    <path
       d="m 2065.0509,3361.2712 c -73,-20 -103,-38 -153,-88 -73,-73 -94,-125 -94,-237 0,-82 4,-103 26,-150 34,-72 89,-126 167,-163 52,-24 76,-29 135,-29 140,-1 248,66 309,190 29,59 33,76 33,147 0,66 -5,90 -28,141 -69,150 -241,232 -395,189 z"
       id="path10"
       style="fill:#ffffff;fill-opacity:1;stroke:none;stroke-width:375.00000447;stroke-miterlimit:4;stroke-dasharray:none;stroke-opacity:1"
       inkscape:connector-curvature="0" />
    <path
       d="m 1484.661,2681.2543 c -50,-13 -89,-37 -128,-80 -120,-133 -32,-356 149,-377 98,-12 189,39 236,130 42,81 19,205 -48,268 -51,48 -146,75 -209,59 z"
       id="path12"
       style="fill:#ffffff;fill-opacity:1;stroke:none;stroke-width:375.00000447;stroke-miterlimit:4;stroke-dasharray:none;stroke-opacity:1"
       inkscape:connector-curvature="0" />
  </g>
</svg>
